<svg width="28" height="28" viewBox="0 0 28 28" fill="none" xmlns="http://www.w3.org/2000/svg">
  <circle cx="14" cy="14" r="14" fill="black" />
  <g transform="translate(1.5,6) scale(0.9)">
    <path d="M19.0698 11.3809C19.0174 11.2404 14.3749 2.00221 14.3051 1.86171C14.0607 1.26456 13.6244 0.755229 13.0484 0.403966C11.5998 -0.439063 9.74979 0.0527039 8.91204 1.51044C8.33608 2.51154 8.37099 3.68827 8.92949 4.61911C8.98185 4.74206 13.4149 13.5939 13.5022 13.7344C13.5546 13.8749 13.6244 13.9978 13.6942 14.1383C13.9385 14.7355 14.3749 15.2448 14.9508 15.5961C16.3994 16.4391 18.2495 15.9649 19.0872 14.5071C19.6806 13.5061 19.6283 12.3118 19.0698 11.3809Z" fill="#0EF387"/>
    <path d="M13.712 5.12843C14.2182 4.58397 14.5323 3.84632 14.5323 3.03842C14.5323 1.36992 13.1884 0 11.5129 0C10.4832 0 9.57563 0.50933 9.03458 1.29967C8.92986 1.40505 1.40756 10.7486 1.3203 10.8716C0.814156 11.416 0.5 12.1537 0.5 12.9616C0.5 14.6476 1.86134 16 3.51939 16C4.54913 16 5.45669 15.4907 5.99774 14.7003C6.10246 14.5774 13.6422 5.25137 13.712 5.12843Z" fill="#FAFAFA"/>
    <path d="M26.6797 5.12843C27.1858 4.58397 27.5 3.84632 27.5 3.03842C27.5 1.35236 26.1386 0 24.4806 0C23.4508 0 22.5433 0.50933 22.0022 1.29967C21.8975 1.40505 14.3578 10.7486 14.2705 10.8716C13.7644 11.416 13.4502 12.1537 13.4502 12.9616C13.4502 14.6476 14.8115 16 16.4696 16C17.4993 16 18.4069 15.4907 18.9479 14.7003C19.0701 14.5774 26.5924 5.25137 26.6797 5.12843Z" fill="#FAFAFA"/>
  </g>
</svg>
